Simulation
nRows=40
nColumns=15
endheader
time  TH_x TH_y TH_z SC_y  SC_z  SC_x  AC_y  AC_z  AC_x  GH_y  GH_z  GH_yy  EL_x  PS_y
0.0  0.000000  0.000000  0.000000  -41.19160806823853  4.93862690852733  4.34420950402928  56.95977678498341  -15.488316077203663  11.536727238905284  19.10575704372306  83.10916207241515  -51.04052791739772  19.958414727551848  120.000000
0.05745  0.000000  0.000000  0.000000  -39.7870283018516  -14.754801028961209  19.90249965434467  62.21081652947848  -23.476605992199605  -0.036603341684895686  22.449787586636734  84.55210830206464  -55.59069919659766  20.87286020126554  120.000000
0.1149  0.000000  0.000000  0.000000  -36.61711397418705  3.9335266181163364  9.876509872269596  35.882376775025364  -24.134693157138113  -10.871551009739202  64.84512319769308  78.81339539500993  -96.05929358663408  23.19765884511755  120.000000
0.17235  0.000000  0.000000  0.000000  -47.208432011143195  23.737278455717554  15.984758752392635  33.29859628857592  -2.7499112635161187  -13.102288968787885  112.9217781417898  79.11259536821977  -94.41975602251449  13.29779628970122  120.000000
0.2298  0.000000  0.000000  0.000000  -53.64293575567802  22.650436460505787  21.491609270058085  39.70910505042242  3.072015380242054  -13.537977429418232  129.1843966473714  74.68066964209915  -74.45446870079653  15.151677631177463  120.000000
0.28725  0.000000  0.000000  0.000000  -42.02907260957388  8.234251380645455  5.272117176965139  35.39152803643111  -4.208213890543613  -17.473424391720638  132.42945988024647  74.46588635942724  -76.95850675190754  26.112113403035963  120.000000
0.3447  0.000000  0.000000  0.000000  -39.6500750025634  -8.65707880464732  9.131585201451188  49.699078542330334  -2.9392879608802978  -10.986944872554968  129.55726813005845  74.58100520746423  -74.15777431673531  17.438232283541463  120.000000
0.40215  0.000000  0.000000  0.000000  -50.85438607740855  -0.8522410903114903  8.797811426297935  68.63386991098703  7.682053015769061  10.746425205928606  121.07304994359556  74.60004920172491  -65.68350376247349  9.081124995180167  120.000000
0.4596  0.000000  0.000000  0.000000  -60.17052609059535  14.802004929909952  -0.17531069667841528  69.01986711633941  23.77162099091624  30.067773320581374  120.17779093892817  74.86625728035845  -65.06247205338373  6.782020688623116  120.000000
0.51705  0.000000  0.000000  0.000000  -59.035781166878316  9.340896360128035  0.08897013303943431  61.894208306330995  28.67941835432993  25.01442974715633  124.5994007872621  79.27935419836358  -76.61220120903307  8.09364332442418  120.000000
0.5745  0.000000  0.000000  0.000000  -52.495457137489524  -0.43656458536239445  16.589166516517867  55.52764479249614  10.605081783866979  -2.6351203677344843  125.6138871331988  80.28988728513384  -79.56253980254442  22.334658231331968  120.000000
0.63195  0.000000  0.000000  0.000000  -49.40792207235749  -4.847732470253561  25.11421219086768  49.953055299150044  2.574524645246671  -19.822387880559642  115.12073334855657  78.1898643952508  -64.59346038074456  32.732506249928775  120.000000
0.6894  0.000000  0.000000  0.000000  -48.52642043230831  -7.68102728934214  24.92401678345218  54.09860310777  0.13904667631670364  -20.659084039337035  101.24777227575922  80.39919381285874  -54.469875922499334  29.949776572196967  120.000000
0.74685  0.000000  0.000000  0.000000  -46.49913578942025  -4.416798270240868  29.20735965144746  51.977349753896526  -8.684070177702695  -16.13652713973925  100.76376640950156  80.72698947726298  -54.140700985963626  21.32840274903236  120.000000
0.8043  0.000000  0.000000  0.000000  -47.1829550255781  1.3833085772028046  35.8154401618054  58.880095192964866  -19.21686151743563  -8.43794443516306  98.89485545676037  81.09870647747289  -53.30624750795621  10.643465439837465  120.000000
0.86175  0.000000  0.000000  0.000000  -49.5438035510234  4.813406932227899  16.993667625270373  76.48247323876744  -10.024656147669184  8.366646320812645  92.11724473235049  78.28835208105124  -79.32128338091243  9.202582671336122  120.000000
0.9192  0.000000  0.000000  0.000000  -49.95985423262275  6.766301309580773  -23.939898916243937  76.62976818213261  27.90612377534609  21.264344817038115  93.41369303248916  77.98248400758358  -114.92803303876735  13.326520819433759  120.000000
0.97665  0.000000  0.000000  0.000000  -45.20487175890361  7.346224984877023  -18.210113735966413  54.412292063648536  32.48486877527937  23.840497217603836  111.34499828059369  81.70685048848136  -97.15532878202436  6.066745329269594  120.000000
1.0341  0.000000  0.000000  0.000000  -39.21750849863748  10.97609348045728  -11.51066472274747  34.39422535427068  9.02368986309696  14.77275805445171  125.34189244033159  81.57924524659747  -83.2844396752415  8.30668582724088  120.000000
1.09155  0.000000  0.000000  0.000000  -46.75117362762764  2.5966927044631145  -27.906044518524837  45.275786135043404  8.27152594748565  10.758536025232008  102.29376679895644  75.99706663675936  -106.72107819709687  21.12810896840429  120.000000
1.149  0.000000  0.000000  0.000000  -55.175845097188486  -2.653234544405517  -28.920856655864096  38.65138692739827  32.75567912990631  27.406477648286987  111.70052361383273  46.71170234647291  -116.10683173225524  28.806192612409497  120.000000
1.20645  0.000000  0.000000  0.000000  -50.57473469745892  18.976005924553135  -20.852032621269128  31.526017511209023  32.477674439495686  30.112318716024436  123.28222771304554  36.458834203603004  -118.83969648640193  30.33019734119933  120.000000
1.2639  0.000000  0.000000  0.000000  -78.9691796278115  28.092187237211885  32.4242118655717  54.581470511026815  13.028637078907222  34.982190714801966  -155.87585675905686  20.56428475986288  154.02466657505428  26.632069250583402  120.000000
1.32135  0.000000  0.000000  0.000000  -82.80417408174476  11.246358093594928  57.165196471923885  61.63093255041726  18.932365327589487  30.870242890561606  -116.37196926442344  30.495124435187236  139.424387371617  22.023026510647824  120.000000
1.3788  0.000000  0.000000  0.000000  -53.91179026319963  20.94193673356386  56.52594212402642  53.679211966675176  1.3385658145677615  9.782840083201073  -106.12652386575192  30.515220026519515  149.61918336400151  32.11668747107789  120.000000
1.43625  0.000000  0.000000  0.000000  -37.89086960973215  30.02437429855516  49.262832106319436  43.0847056198958  -13.928210513586587  16.92717516915782  -106.3276283813004  30.46723022485676  149.73554331441036  32.8549614407233  120.000000
1.4937  0.000000  0.000000  0.000000  -42.88936720855204  19.247010010892506  18.133202711015944  46.41076189822458  8.14046779695348  -8.305024952229427  132.34343363055186  62.82175851550951  -83.79013483059775  6.051703231267903  120.000000
1.55115  0.000000  0.000000  0.000000  -47.36891483018911  7.76165564916307  -14.894391128729929  26.652193759311682  -3.4972159269492793  -16.079839150348676  131.22536305717531  81.77267005451925  -76.97008150374039  11.392438532108843  120.000000
1.6086  0.000000  0.000000  0.000000  -48.44867741408005  12.335625785616589  15.354267735396398  55.98125644967487  1.7460872374582643  6.766684035536057  121.29109495679663  79.01237308486111  -88.12346701042901  5.582954970754754  120.000000
1.66605  0.000000  0.000000  0.000000  -64.6543498187535  20.539926698815112  60.82290402007218  53.35654867775299  20.753077227030246  32.74126110547237  133.31338013012157  55.197856944323206  -87.59131211887514  5.934866776089157  120.000000
1.7235  0.000000  0.000000  0.000000  -63.21192549989199  21.80262019186762  33.30731507259068  72.11916766166644  6.481596316154867  43.33965166392556  -89.84136171869416  25.755736969791588  132.3292393725657  29.91856346815232  120.000000
1.78095  0.000000  0.000000  0.000000  -46.606400075486704  15.928290901182319  -7.5626272895211155  78.75831403608629  4.471701265677935  26.35467827724781  0.7050332043820157  63.262993468203256  47.39713601375646  30.733928763761003  120.000000
1.8384  0.000000  0.000000  0.000000  -40.06496800204333  24.519588824916877  -1.0206509083422854  39.71135449107382  10.68500168122812  35.092963060817766  -16.04677172055463  39.6288016601403  59.33659034742432  31.649339618599054  120.000000
1.89585  0.000000  0.000000  0.000000  -45.652777813877854  28.36394210291111  17.540691407193766  41.762133700235076  20.963342002063303  21.05865981409555  132.05822675797015  18.076038547809215  -123.57451584791565  21.306326520620054  120.000000
1.9533  0.000000  0.000000  0.000000  -33.12926620347436  0.7875748610705163  -9.736754484503345  40.125082323089835  3.9802819442289934  0.9670763401573735  50.00487249834924  87.76000212874493  -80.89803055147398  9.216892349608313  120.000000
2.01075  0.000000  0.000000  0.000000  -36.038127918282875  -12.365875254094489  -28.579354071102387  38.60076562307271  9.54292886971234  8.717294514370915  46.705733656483105  103.36171479769939  -60.838367096867664  5.482450460330674  120.000000
2.0682  0.000000  0.000000  0.000000  -43.20216119413747  28.017410497215888  -18.36866095985601  33.256029176455016  8.089671272093234  16.89279154865748  71.60951459666789  60.590778335737426  -27.214800406450202  9.93867002491361  120.000000
2.1256500000000003  0.000000  0.000000  0.000000  -68.47963276707235  37.52355297205043  27.971564810994483  47.86128929280416  1.09986911739043  25.617767960934604  145.68278751009572  16.61181874265762  -104.2775500773014  26.33132701458133  120.000000
2.1831  0.000000  0.000000  0.000000  -60.7888606494659  15.357216596668408  38.795553926059036  56.01516387349749  11.208297513800758  17.255619598613915  -115.86622467135092  25.26723100485879  157.90882202333844  32.17933286838769  120.000000
2.24055  0.000000  0.000000  0.000000  -43.04380147562521  8.092401888262522  22.980164222897244  51.514692310960136  14.296264024956196  8.561899147233692  -106.75342644019955  30.45341427217621  149.05242858843735  14.9501502432085  120.000000
